<svg xmlns="http://www.w3.org/2000/svg" xmlns:xlink="http://www.w3.org/1999/xlink" width="2000" zoomAndPan="magnify" viewBox="0 0 1500 1499.999933" height="2000" preserveAspectRatio="xMidYMid meet" version="1.0"><defs><g/></defs><g fill="#228b22" fill-opacity="1"><g transform="translate(-75.086618, 1242.681173)"><g><path d="M 158.546875 0 L 158.546875 -1056.75 L 842.859375 -1056.75 L 842.859375 -954.296875 L 277.46875 -954.296875 L 277.46875 -578.859375 L 768.8125 -578.859375 L 768.8125 -479.390625 L 277.46875 -479.390625 L 277.46875 -108.4375 L 842.859375 -108.4375 L 842.859375 0 Z M 158.546875 0 "/></g></g></g><g fill="#2a2a2a" fill-opacity="1"><g transform="translate(738.194562, 1242.681173)"><g><path d="M 372.4375 14.953125 C 324.082031 14.953125 280.832031 6.851562 242.6875 -9.34375 C 204.539062 -25.550781 172.003906 -47.863281 145.078125 -76.28125 C 118.160156 -104.695312 96.972656 -137.726562 81.515625 -175.375 C 66.054688 -213.019531 56.832031 -253.28125 53.84375 -296.15625 L 169.765625 -311.859375 C 171.765625 -284.441406 177 -257.519531 185.46875 -231.09375 C 193.945312 -204.664062 206.285156 -180.734375 222.484375 -159.296875 C 238.691406 -137.859375 259.132812 -120.90625 283.8125 -108.4375 C 308.5 -95.976562 338.039062 -89.75 372.4375 -89.75 C 415.320312 -89.75 450.222656 -96.851562 477.140625 -111.0625 C 504.066406 -125.269531 524.757812 -144.835938 539.21875 -169.765625 C 553.675781 -194.691406 563.644531 -223.734375 569.125 -256.890625 C 574.613281 -290.046875 577.359375 -325.320312 577.359375 -362.71875 L 577.359375 -954.296875 L 179.484375 -954.296875 L 179.484375 -1056.75 L 696.28125 -1056.75 L 696.28125 -375.4375 C 696.28125 -297.15625 685.554688 -228.722656 664.109375 -170.140625 C 642.671875 -111.554688 608.269531 -66.0625 560.90625 -33.65625 C 513.539062 -1.25 450.71875 14.953125 372.4375 14.953125 Z M 372.4375 14.953125 "/></g></g></g></svg>